<?xml version="1.0" encoding="UTF-8" standalone="no"?>
<!-- Generator: Adobe Illustrator 16.0.3, SVG Export Plug-In . SVG Version: 6.00 Build 0)  -->

<svg
   xmlns:dc="http://purl.org/dc/elements/1.1/"
   xmlns:cc="http://creativecommons.org/ns#"
   xmlns:rdf="http://www.w3.org/1999/02/22-rdf-syntax-ns#"
   xmlns:svg="http://www.w3.org/2000/svg"
   xmlns="http://www.w3.org/2000/svg"
   xmlns:sodipodi="http://sodipodi.sourceforge.net/DTD/sodipodi-0.dtd"
   xmlns:inkscape="http://www.inkscape.org/namespaces/inkscape"
   version="1.0"
   id="Layer_1"
   x="0px"
   y="0px"
   width="256"
   height="128"
   viewBox="0 0 256 128"
   enable-background="new 0 0 409 205"
   xml:space="preserve"
   inkscape:version="0.92.1 r15371"
   sodipodi:docname="painting01.svg"
   inkscape:export-filename="..\painting01.png"
   inkscape:export-xdpi="96"
   inkscape:export-ydpi="96"><title
     id="title4239">logo of Babylon.js</title><metadata
     id="metadata111"><rdf:RDF><cc:Work
         rdf:about=""><dc:format>image/svg+xml</dc:format><dc:type
           rdf:resource="http://purl.org/dc/dcmitype/StillImage" /><dc:title>logo of Babylon.js</dc:title><cc:license
           rdf:resource="http://www.apache.org/licenses/LICENSE-2.0" /><dc:date>June, 27, 2013</dc:date><dc:creator><cc:Agent><dc:title>babylonjs.com</dc:title></cc:Agent></dc:creator><dc:source>http://babylonjs.com/</dc:source><dc:language>en</dc:language><dc:subject><rdf:Bag><rdf:li>logo</rdf:li><rdf:li>Babylon.js</rdf:li><rdf:li>WebGL</rdf:li><rdf:li>HTML5</rdf:li></rdf:Bag></dc:subject><dc:contributor><cc:Agent><dc:title>David Catuhe, David Rousset, Michel Rousseau</dc:title></cc:Agent></dc:contributor></cc:Work></rdf:RDF></metadata><defs
     id="defs109" /><sodipodi:namedview
     pagecolor="#ffffff"
     bordercolor="#666666"
     borderopacity="1"
     objecttolerance="10"
     gridtolerance="10"
     guidetolerance="10"
     inkscape:pageopacity="0"
     inkscape:pageshadow="2"
     inkscape:window-width="1920"
     inkscape:window-height="1147"
     id="namedview107"
     showgrid="false"
     inkscape:zoom="3.4816626"
     inkscape:cx="115.04059"
     inkscape:cy="93.310106"
     inkscape:window-x="-8"
     inkscape:window-y="-8"
     inkscape:window-maximized="1"
     inkscape:current-layer="layer2"
     borderlayer="true"
     inkscape:showpageshadow="false"
     inkscape:snap-page="true"
     inkscape:snap-global="false" /><g
     inkscape:groupmode="layer"
     id="layer2"
     inkscape:label="bgd"><rect
       style="color:#000000;clip-rule:nonzero;display:inline;overflow:visible;visibility:visible;opacity:1;isolation:auto;mix-blend-mode:normal;color-interpolation:sRGB;color-interpolation-filters:linearRGB;solid-color:#000000;solid-opacity:1;vector-effect:none;fill:#ffffff;fill-opacity:1;fill-rule:evenodd;stroke:none;stroke-width:15;stroke-linecap:round;stroke-linejoin:round;stroke-miterlimit:4;stroke-dasharray:none;stroke-dashoffset:0;stroke-opacity:1;paint-order:markers fill stroke;color-rendering:auto;image-rendering:auto;shape-rendering:auto;text-rendering:auto;enable-background:accumulate"
       id="rect4704"
       width="256"
       height="128"
       x="0"
       y="0" /></g><g
     inkscape:groupmode="layer"
     id="layer1"
     inkscape:label="Layer 1"
     style="display:inline"
     sodipodi:insensitive="true"><g
       id="g3"
       transform="matrix(0.60919698,0,0,0.60919698,0.57474487,-0.71006436)"><path
         d="m 40.307,59.785 c -8.569,0 -11.953,5.04 -11.953,13.105 0,7.993 3.456,12.961 12.025,12.961 8.569,0 11.953,-4.896 11.953,-12.961 0,-8.065 -3.457,-13.105 -12.025,-13.105 z"
         id="path5"
         inkscape:connector-curvature="0"
         style="fill:none" /><path
         d="m 96.106,75.77 c -1.944,0 -3.816,0 -6.265,0.144 -2.376,0.072 -4.896,0.288 -7.128,0.792 -4.537,0.936 -6.409,2.52 -6.409,4.824 0,3.313 4.32,4.752 9.001,4.752 3.672,0 12.385,-0.432 12.385,-4.968 v -4.32 l 0.019,-1.223 C 97.276,75.699 96.394,75.77 96.106,75.77 Z"
         id="path7"
         inkscape:connector-curvature="0"
         style="fill:none" /><path
         d="m 268.777,89.316 c 0.101,0.046 0.203,0.09 0.303,0.137 -0.053,-0.1 -0.102,-0.202 -0.154,-0.302 -0.05,0.055 -0.098,0.111 -0.149,0.165 z"
         id="path9"
         inkscape:connector-curvature="0"
         style="fill:none" /><path
         d="m 260.253,70.388 c 0.156,0.588 0.247,1.204 0.247,1.841 0,3.969 -3.218,7.188 -7.188,7.188 -3.97,0 -7.188,-3.218 -7.188,-7.188 0,-3.97 3.218,-7.188 7.188,-7.188 0.4,0 0.791,0.041 1.174,0.104 -0.07,-0.379 -0.111,-0.768 -0.111,-1.167 0,-1.281 0.379,-2.472 1.024,-3.475 -1.386,-0.461 -2.968,-0.719 -4.784,-0.719 -8.497,0 -12.098,5.184 -12.098,13.033 0,7.777 3.745,13.105 12.098,13.105 8.425,0 12.097,-5.329 12.097,-13.105 0,-0.919 -0.056,-1.801 -0.16,-2.646 -0.554,0.155 -1.136,0.245 -1.739,0.245 -0.189,0.001 -0.375,-0.012 -0.56,-0.028 z"
         id="path11"
         inkscape:connector-curvature="0"
         style="fill:none" /><path
         d="m 137.434,59.785 c -8.569,0 -11.953,5.04 -11.953,13.105 0,7.993 3.456,12.961 12.025,12.961 8.569,0 11.953,-4.896 11.953,-12.961 -0.001,-8.065 -3.457,-13.105 -12.025,-13.105 z"
         id="path13"
         inkscape:connector-curvature="0"
         style="fill:none" /><path
         d="m 344.635,71.691 c -0.446,15.286 -9.424,28.425 -22.345,34.821 v 18.515 c 3.294,5.084 5.609,10.857 6.686,17.059 l 4.326,-4.326 c 5.977,5.4 12.89,7.92 19.658,7.92 9.577,0 13.033,-3.023 13.033,-6.264 0,-1.873 -1.656,-4.753 -9.289,-6.625 -1.296,-0.288 -9.433,-2.305 -10.801,-2.664 -10.369,-2.664 -19.658,-6.553 -19.658,-16.418 0,-9.289 8.857,-16.921 25.563,-16.921 10.441,0 19.082,3.528 25.418,10.009 l -8.568,8.496 c -4.032,-4.607 -10.225,-7.632 -16.993,-7.632 -9.505,0 -12.962,3.025 -12.962,5.761 0,2.447 2.665,3.96 12.098,6.336 1.296,0.36 8.064,2.088 9.433,2.377 12.169,2.951 18.218,9.288 18.218,17.064 0,9.001 -7.921,17.354 -25.923,17.354 -8.234,0 -16.236,-2.053 -22.862,-6.428 -0.045,16.802 -9.102,31.479 -22.59,39.471 8.493,4.3 18.089,6.738 28.26,6.738 34.609,0 62.666,-28.057 62.666,-62.667 -0.002,-31.449 -23.17,-57.482 -53.368,-61.976 z"
         id="path15"
         inkscape:connector-curvature="0"
         style="fill:#00aeef" /><path
         d="m 307.338,110.556 c 0.927,0.558 1.828,1.152 2.711,1.772 v -2.053 c -0.895,0.124 -1.799,0.217 -2.711,0.281 z"
         id="path17"
         inkscape:connector-curvature="0"
         style="fill:#00aeef" /><g
         id="g19"><path
           d="m 273.656,144.699 c -0.295,-1.659 -0.535,-3.338 -0.696,-5.039 -0.829,0.563 -1.688,1.085 -2.576,1.563 1.275,0.967 2.387,2.138 3.272,3.476 z"
           id="path21"
           inkscape:connector-curvature="0"
           style="fill:#ef4136" /></g><g
         id="g23"><path
           d="m 275.944,153.659 c -0.591,7.28 -6.675,13.009 -14.108,13.009 -7.824,0 -14.167,-6.344 -14.167,-14.167 0,-3.19 1.067,-6.126 2.848,-8.494 -4.234,-0.915 -8.124,-2.754 -11.449,-5.298 -0.911,3.613 -1.4,7.395 -1.4,11.291 0,25.404 20.595,46 45.999,46 8.55,0 16.55,-2.341 23.409,-6.404 -14.569,-7.376 -25.859,-20.268 -31.132,-35.937 z"
           id="path25"
           inkscape:connector-curvature="0"
           style="fill:#ef4136" /></g><g
         id="g27"><g
           id="g29"><path
             d="m 300.294,59.785 c -6.624,0 -11.16,3.24 -11.16,9.217 v 22.334 c 5.881,-6.414 13.081,-11.593 21.169,-15.122 v -7.717 c 0,-5.472 -1.367,-8.712 -10.009,-8.712 z"
             id="path31"
             inkscape:connector-curvature="0"
             style="fill:#8dc63f" /></g><g
           id="g33"><path
             d="m 281.763,101.137 c 1.189,-1.955 2.494,-3.831 3.884,-5.638 h -8.148 c 1.64,1.694 3.073,3.586 4.264,5.638 z"
             id="path35"
             inkscape:connector-curvature="0"
             style="fill:#8dc63f" /></g><g
           id="g37"><path
             d="m 304.498,30.333 c -16.672,0 -30.969,10.158 -37.046,24.621 4.865,4.24 7.285,10.581 7.285,17.863 0,6.41 -1.952,12.144 -5.812,16.334 0.053,0.1 0.102,0.202 0.154,0.302 2.994,1.42 5.705,3.335 8.028,5.644 V 50.063 h 12.025 v 3.96 h 0.144 c 3.097,-2.808 8.064,-4.608 13.105,-4.608 12.024,0 19.945,6.625 19.945,17.93 l -0.013,5.019 c 4.201,-0.888 8.554,-1.363 13.02,-1.363 3.161,0 6.265,0.24 9.3,0.691 0.012,-0.396 0.03,-0.792 0.03,-1.191 0.002,-22.185 -17.981,-40.168 -40.165,-40.168 z"
             id="path39"
             inkscape:connector-curvature="0"
             style="fill:#8dc63f" /></g></g><g
         id="g41"><path
           d="m 324.806,146.256 4.17,-4.17 c -1.076,-6.201 -3.392,-11.975 -6.686,-17.059 v 8.771 c 0,16.85 -11.305,22.754 -23.546,22.754 -8.137,0 -14.689,-3.313 -19.874,-9.648 l 8.28,-8.281 c 3.097,4.393 7.705,6.984 11.665,6.984 5.617,0 11.233,-2.52 11.233,-11.448 v -21.831 c -0.883,-0.62 -1.784,-1.215 -2.711,-1.772 -6.916,-4.16 -15.014,-6.556 -23.672,-6.556 -0.148,0 -0.294,0.01 -0.442,0.011 0.11,0.251 0.218,0.505 0.321,0.76 1.365,3.365 2.124,7.041 2.124,10.896 0,9.977 -5.039,18.774 -12.709,23.993 0.161,1.701 0.401,3.38 0.696,5.039 1.479,2.238 2.347,4.918 2.347,7.802 0,0.392 -0.027,0.775 -0.059,1.158 5.272,15.669 16.563,28.561 31.131,35.937 13.488,-7.991 22.545,-22.669 22.59,-39.471 -1.717,-1.135 -3.347,-2.416 -4.858,-3.869 z"
           id="path43"
           inkscape:connector-curvature="0"
           style="fill:#345451" /></g><g
         id="g45"><path
           d="m 280.048,104.155 c 0.228,-0.426 0.467,-0.845 0.704,-1.265 -4.822,-3.542 -8.826,-8.131 -11.672,-13.438 -0.1,-0.047 -0.202,-0.091 -0.303,-0.137 -4.033,4.28 -10.097,6.904 -18.162,6.904 -4.989,0 -9.198,-0.98 -12.635,-2.722 -6.305,5.32 -10.313,13.275 -10.313,22.169 0,9.396 4.472,17.743 11.399,23.042 4.75,-18.813 21.09,-33.003 40.982,-34.553 z"
           id="path47"
           inkscape:connector-curvature="0"
           style="fill:#f9ed32" /></g><g
         id="g49"><path
           d="m 261.836,138.334 c 3.215,0 6.17,1.084 8.548,2.889 0.888,-0.478 1.747,-0.999 2.576,-1.563 -0.188,-1.974 -0.292,-3.971 -0.292,-5.993 0,-10.672 2.675,-20.717 7.38,-29.512 -19.892,1.549 -36.231,15.739 -40.98,34.554 3.325,2.544 7.215,4.383 11.449,5.298 2.585,-3.439 6.686,-5.673 11.319,-5.673 z"
           id="path51"
           inkscape:connector-curvature="0"
           style="fill:#ec8037" /></g><g
         id="g53"><path
           d="m 277.498,95.5 h -0.39 v -0.403 c -2.323,-2.308 -5.034,-4.224 -8.028,-5.644 2.846,5.306 6.85,9.896 11.672,13.438 0.332,-0.587 0.66,-1.178 1.011,-1.753 -1.191,-2.053 -2.624,-3.945 -4.265,-5.638 z"
           id="path55"
           inkscape:connector-curvature="0"
           style="fill:#b8c43c" /></g><g
         id="g57"><path
           d="m 335.335,71 c -4.466,0 -8.818,0.475 -13.02,1.363 l -0.06,23.136 H 310.302 V 76.214 c -8.088,3.529 -15.288,8.708 -21.169,15.122 V 95.5 h -3.487 c -1.39,1.807 -2.694,3.683 -3.884,5.638 -0.351,0.576 -0.679,1.166 -1.011,1.753 -0.237,0.42 -0.477,0.838 -0.704,1.265 0.776,-0.061 1.558,-0.102 2.344,-0.123 0.277,-0.008 0.554,-0.019 0.832,-0.021 0.148,-0.001 0.294,-0.011 0.442,-0.011 8.658,0 16.756,2.396 23.672,6.556 0.912,-0.063 1.816,-0.156 2.711,-0.28 V 97.508 h 12.241 v 9.004 C 335.21,100.116 344.187,86.977 344.634,71.691 341.6,71.24 338.496,71 335.335,71 Z"
           id="path59"
           inkscape:connector-curvature="0"
           style="fill:#00aa6f" /></g><g
         id="g61"><path
           d="m 283.545,104.771 c -0.104,-0.255 -0.211,-0.509 -0.321,-0.76 -0.278,0.002 -0.555,0.013 -0.832,0.021 -0.786,0.021 -1.567,0.063 -2.344,0.123 -4.705,8.795 -7.38,18.84 -7.38,29.512 0,2.022 0.104,4.02 0.292,5.993 7.67,-5.219 12.709,-14.017 12.709,-23.993 0,-3.854 -0.759,-7.531 -2.124,-10.896 z"
           id="path63"
           inkscape:connector-curvature="0"
           style="fill:#3d846c" /></g><g
         id="g65"><path
           d="m 270.384,141.223 c -4.084,2.195 -8.753,3.444 -13.715,3.444 -2.111,0 -4.169,-0.231 -6.152,-0.66 -1.78,2.368 -2.848,5.304 -2.848,8.494 0,7.823 6.343,14.167 14.167,14.167 7.434,0 13.518,-5.729 14.108,-13.009 -0.976,-2.898 -1.743,-5.89 -2.288,-8.96 -0.885,-1.338 -1.997,-2.509 -3.272,-3.476 z"
           id="path67"
           inkscape:connector-curvature="0"
           style="fill:#ec8037" /></g><g
         id="g69"><path
           d="m 276.003,152.501 c 0,-2.884 -0.867,-5.563 -2.347,-7.802 0.545,3.07 1.313,6.062 2.288,8.96 0.032,-0.383 0.059,-0.766 0.059,-1.158 z"
           id="path71"
           inkscape:connector-curvature="0"
           style="fill:#f9ed32" /></g><g
         id="g73"><path
           d="m 270.384,141.223 c -2.378,-1.805 -5.333,-2.889 -8.548,-2.889 -4.633,0 -8.734,2.234 -11.319,5.673 1.983,0.429 4.041,0.66 6.152,0.66 4.962,0 9.631,-1.249 13.715,-3.444 z"
           id="path75"
           inkscape:connector-curvature="0"
           style="fill:#f8971d" /></g><g
         id="g77"><path
           d="m 253.313,79.417 c 3.97,0 7.188,-3.218 7.188,-7.188 0,-0.637 -0.091,-1.252 -0.247,-1.841 -2.902,-0.25 -5.251,-2.424 -5.767,-5.243 -0.383,-0.063 -0.773,-0.104 -1.174,-0.104 -3.97,0 -7.188,3.218 -7.188,7.188 0,3.97 3.218,7.188 7.188,7.188 z"
           id="path79"
           inkscape:connector-curvature="0"
           style="fill:#be1e2d" /><path
           d="m 41.747,49.416 c -5.185,0 -10.009,1.656 -12.601,4.249 H 29.002 V 18.015 H 16.977 V 95.572 H 29.002 V 92.26 h 0.144 c 2.736,2.448 7.345,3.96 12.601,3.96 15.122,0 22.61,-9.865 22.61,-23.33 C 64.356,59.424 57.012,49.416 41.747,49.416 Z m -1.369,36.435 c -8.569,0 -12.025,-4.968 -12.025,-12.961 0,-8.065 3.384,-13.105 11.953,-13.105 8.569,0 12.025,5.04 12.025,13.105 10e-4,8.064 -3.384,12.961 -11.953,12.961 z"
           id="path81"
           inkscape:connector-curvature="0"
           style="fill:#be1e2d" /><path
           d="m 88.473,49.487 c -7.705,0 -14.689,1.873 -20.881,6.265 l 7.417,7.489 c 4.104,-2.736 8.785,-3.816 13.321,-3.816 5.4,0 8.856,1.944 9.145,5.761 l 0.005,1.169 c -0.432,-0.072 -2.453,-0.089 -2.813,-0.089 -11.521,0 -30.315,1.368 -30.315,15.121 0,11.665 11.593,14.905 20.522,14.905 4.608,0 9.289,-1.08 12.673,-3.312 h 0.144 v 2.592 h 12.025 V 67.345 C 109.715,54.888 100.714,49.487 88.473,49.487 Z m 9.217,27.507 v 4.32 c 0,4.536 -8.712,4.968 -12.385,4.968 -4.681,0 -9.001,-1.44 -9.001,-4.752 0,-2.304 1.872,-3.888 6.409,-4.824 2.232,-0.504 4.752,-0.72 7.128,-0.792 2.448,-0.144 4.321,-0.144 6.265,-0.144 0.288,0 1.17,-0.071 1.603,0.001 z"
           id="path83"
           inkscape:connector-curvature="0"
           style="fill:#be1e2d" /><path
           d="m 138.874,49.416 c -5.185,0 -10.009,1.656 -12.601,4.249 h -0.144 v -35.65 h -12.025 v 77.557 h 12.025 V 92.26 h 0.144 c 2.736,2.448 7.345,3.96 12.601,3.96 15.122,0 22.61,-9.865 22.61,-23.33 -0.001,-13.466 -7.345,-23.474 -22.61,-23.474 z m -1.369,36.435 c -8.569,0 -12.025,-4.968 -12.025,-12.961 0,-8.065 3.384,-13.105 11.953,-13.105 8.569,0 12.025,5.04 12.025,13.105 0,8.064 -3.384,12.961 -11.953,12.961 z"
           id="path85"
           inkscape:connector-curvature="0"
           style="fill:#be1e2d" /><path
           d="m 186.48,75.41 -1.271,2.632 -0.875,1.75 -2.318,-4.382 -11.881,-25.274 h -13.249 l 21.53,44.355 c -2.088,4.969 -4.32,6.193 -6.769,6.193 -2.449,0 -5.329,-0.792 -10.009,-3.24 v 10.873 c 4.104,2.017 7.345,2.664 11.161,2.664 7.129,0 12.673,-4.68 15.625,-11.232 l 22.034,-49.612 h -13.249 z"
           id="path87"
           inkscape:connector-curvature="0"
           style="fill:#be1e2d" /><rect
           x="212.166"
           y="18.014"
           width="12.025"
           height="77.485001"
           id="rect89"
           style="fill:#be1e2d" /><path
           d="m 267.452,54.955 c -3.986,-3.475 -9.612,-5.539 -16.909,-5.539 -16.058,0 -24.051,10.225 -24.051,23.402 0,9.101 3.815,16.792 11.488,20.68 3.437,1.742 7.646,2.722 12.635,2.722 8.065,0 14.129,-2.624 18.162,-6.904 0.051,-0.054 0.099,-0.11 0.148,-0.165 3.859,-4.19 5.812,-9.924 5.812,-16.334 0,-7.281 -2.42,-13.623 -7.285,-17.862 z m -16.837,4.83 c 1.816,0 3.398,0.258 4.784,0.719 1.145,-1.78 3.139,-2.962 5.413,-2.962 1.991,0 3.771,0.905 4.952,2.326 0.927,1.115 1.485,2.548 1.485,4.112 0,2.244 -1.149,4.217 -2.89,5.369 -0.55,0.364 -1.159,0.642 -1.809,0.824 0.104,0.845 0.16,1.726 0.16,2.646 0,7.777 -3.672,13.105 -12.097,13.105 -8.353,0 -12.098,-5.329 -12.098,-13.105 0.003,-7.85 3.603,-13.034 12.1,-13.034 z"
           id="path91"
           inkscape:connector-curvature="0"
           style="fill:#be1e2d" /><path
           d="m 302.383,49.416 c -5.041,0 -10.009,1.8 -13.105,4.608 h -0.144 v -3.96 h -12.025 v 45.033 c 0.133,0.132 0.26,0.269 0.39,0.403 h 8.148 c 1.105,-1.437 2.265,-2.829 3.487,-4.164 V 69.001 c 0,-5.977 4.536,-9.217 11.16,-9.217 8.642,0 10.009,3.24 10.009,8.712 V 76.213 95.5 h 11.953 l 0.06,-23.136 0.013,-5.019 C 322.328,56.04 314.407,49.416 302.383,49.416 Z"
           id="path93"
           inkscape:connector-curvature="0"
           style="fill:#be1e2d" /></g><path
         d="m 289.134,95.5 v -4.164 c -1.223,1.334 -2.382,2.727 -3.487,4.164 z"
         id="path95"
         inkscape:connector-curvature="0"
         style="fill:#be1e2d" /><path
         d="m 277.498,95.5 c -0.13,-0.134 -0.257,-0.271 -0.39,-0.403 V 95.5 Z"
         id="path97"
         inkscape:connector-curvature="0"
         style="fill:#be1e2d" /><g
         id="g99"><path
           d="m 310.049,110.275 v 2.053 21.831 c 0,8.929 -5.616,11.448 -11.233,11.448 -3.96,0 -8.568,-2.592 -11.665,-6.984 l -8.28,8.281 c 5.185,6.336 11.737,9.648 19.874,9.648 12.241,0 23.546,-5.904 23.546,-22.754 v -8.771 -18.515 -9.004 H 310.05 v 12.767 z"
           id="path101"
           inkscape:connector-curvature="0"
           style="fill:#ffffff" /><path
           d="m 360.232,122.135 c -1.368,-0.289 -8.137,-2.017 -9.433,-2.377 -9.433,-2.376 -12.098,-3.889 -12.098,-6.336 0,-2.736 3.457,-5.761 12.962,-5.761 6.769,0 12.961,3.025 16.993,7.632 l 8.568,-8.496 c -6.336,-6.48 -14.977,-10.009 -25.418,-10.009 -16.705,0 -25.563,7.632 -25.563,16.921 0,9.865 9.289,13.754 19.658,16.418 1.368,0.359 9.505,2.376 10.801,2.664 7.633,1.872 9.289,4.752 9.289,6.625 0,3.24 -3.456,6.264 -13.033,6.264 -6.769,0 -13.682,-2.52 -19.658,-7.92 l -4.326,4.326 -4.17,4.17 c 1.512,1.453 3.142,2.734 4.859,3.869 6.626,4.375 14.628,6.428 22.862,6.428 18.002,0 25.923,-8.353 25.923,-17.354 0.002,-7.776 -6.047,-14.113 -18.216,-17.064 z"
           id="path103"
           inkscape:connector-curvature="0"
           style="fill:#ffffff" /><path
           d="m 260.813,57.542 c -2.274,0 -4.269,1.182 -5.413,2.962 -0.646,1.003 -1.024,2.194 -1.024,3.475 0,0.399 0.041,0.788 0.111,1.167 0.516,2.818 2.864,4.992 5.767,5.243 0.185,0.016 0.371,0.028 0.56,0.028 0.604,0 1.186,-0.089 1.739,-0.245 0.649,-0.182 1.259,-0.46 1.809,-0.824 1.74,-1.152 2.89,-3.125 2.89,-5.369 0,-1.563 -0.559,-2.997 -1.485,-4.112 -1.184,-1.42 -2.963,-2.325 -4.954,-2.325 z"
           id="path105"
           inkscape:connector-curvature="0"
           style="fill:#ffffff" /></g></g></g></svg>